REM DIRINDEX 1\2\5,1\2\6,1\2\7,1\2\8,1\3\9,1\3\10,1\3\11,1\4\12,1\4\13,1\4\14,1\4\15,1\4\16
REM DIRNAME cjc034,folder01,folder02,folder03,folder04,folder05,folder06,folder07,folder08,folder09,folder10,folder11,folder12,folder13,folder14,folder15
TITLE ""
FILE "1200_sec03_0810_0818.mp3" MP3
  TRACK 01 AUDIO
    TITLE "0:"
    INDEX 01 00:00:00
  TRACK 02 AUDIO
    TITLE "12:cjc034_06907"
    INDEX 01 00:00:17
  TRACK 03 AUDIO
    TITLE "0:"
    INDEX 01 00:01:42
  TRACK 04 AUDIO
    TITLE "13:cjc034_06908"
    INDEX 01 00:02:00
  TRACK 05 AUDIO
    TITLE "0:"
    INDEX 01 00:04:60
  TRACK 06 AUDIO
    TITLE "14:cjc034_06909"
    INDEX 01 00:05:18
  TRACK 07 AUDIO
    TITLE "0:"
    INDEX 01 00:06:45
  TRACK 08 AUDIO
    TITLE "15:cjc034_06910"
    INDEX 01 00:07:02
  TRACK 09 AUDIO
    TITLE "0:"
    INDEX 01 00:11:27
  TRACK 10 AUDIO
    TITLE "12:cjc034_06911"
    INDEX 01 00:12:60
  TRACK 11 AUDIO
    TITLE "0:"
    INDEX 01 00:14:11
  TRACK 12 AUDIO
    TITLE "13:cjc034_06912"
    INDEX 01 00:14:43
  TRACK 13 AUDIO
    TITLE "0:"
    INDEX 01 00:17:06
  TRACK 14 AUDIO
    TITLE "14:cjc034_06913"
    INDEX 01 00:17:37
  TRACK 15 AUDIO
    TITLE "0:"
    INDEX 01 00:18:66
  TRACK 16 AUDIO
    TITLE "15:cjc034_06914"
    INDEX 01 00:19:24
  TRACK 17 AUDIO
    TITLE "0:"
    INDEX 01 00:23:71
  TRACK 18 AUDIO
    TITLE "12:cjc034_06915"
    INDEX 01 00:25:31
  TRACK 19 AUDIO
    TITLE "0:"
    INDEX 01 00:26:42
  TRACK 20 AUDIO
    TITLE "13:cjc034_06916"
    INDEX 01 00:27:02
  TRACK 21 AUDIO
    TITLE "0:"
    INDEX 01 00:29:48
  TRACK 22 AUDIO
    TITLE "14:cjc034_06917"
    INDEX 01 00:30:06
  TRACK 23 AUDIO
    TITLE "0:"
    INDEX 01 00:31:18
  TRACK 24 AUDIO
    TITLE "15:cjc034_06918"
    INDEX 01 00:31:51
  TRACK 25 AUDIO
    TITLE "0:"
    INDEX 01 00:35:21
  TRACK 26 AUDIO
    TITLE "12:cjc034_06919"
    INDEX 01 00:36:54
  TRACK 27 AUDIO
    TITLE "0:"
    INDEX 01 00:38:02
  TRACK 28 AUDIO
    TITLE "13:cjc034_06920"
    INDEX 01 00:38:37
  TRACK 29 AUDIO
    TITLE "0:"
    INDEX 01 00:41:30
  TRACK 30 AUDIO
    TITLE "14:cjc034_06921"
    INDEX 01 00:41:63
  TRACK 31 AUDIO
    TITLE "0:"
    INDEX 01 00:43:11
  TRACK 32 AUDIO
    TITLE "15:cjc034_06922"
    INDEX 01 00:43:50
  TRACK 33 AUDIO
    TITLE "0:"
    INDEX 01 00:47:05
  TRACK 34 AUDIO
    TITLE "12:cjc034_06923"
    INDEX 01 00:48:40
  TRACK 35 AUDIO
    TITLE "0:"
    INDEX 01 00:49:51
  TRACK 36 AUDIO
    TITLE "13:cjc034_06924"
    INDEX 01 00:50:09
  TRACK 37 AUDIO
    TITLE "0:"
    INDEX 01 00:53:60
  TRACK 38 AUDIO
    TITLE "14:cjc034_06925"
    INDEX 01 00:54:19
  TRACK 39 AUDIO
    TITLE "0:"
    INDEX 01 00:55:30
  TRACK 40 AUDIO
    TITLE "15:cjc034_06926"
    INDEX 01 00:55:69
  TRACK 41 AUDIO
    TITLE "0:"
    INDEX 01 00:59:30
  TRACK 42 AUDIO
    TITLE "12:cjc034_06927"
    INDEX 01 01:00:64
  TRACK 43 AUDIO
    TITLE "0:"
    INDEX 01 01:02:06
  TRACK 44 AUDIO
    TITLE "13:cjc034_06928"
    INDEX 01 01:02:40
  TRACK 45 AUDIO
    TITLE "0:"
    INDEX 01 01:05:03
  TRACK 46 AUDIO
    TITLE "14:cjc034_06929"
    INDEX 01 01:05:38
  TRACK 47 AUDIO
    TITLE "0:"
    INDEX 01 01:06:51
  TRACK 48 AUDIO
    TITLE "15:cjc034_06930"
    INDEX 01 01:07:15
  TRACK 49 AUDIO
    TITLE "0:"
    INDEX 01 01:11:51
  TRACK 50 AUDIO
    TITLE "12:cjc034_06931"
    INDEX 01 01:13:08
  TRACK 51 AUDIO
    TITLE "0:"
    INDEX 01 01:14:23
  TRACK 52 AUDIO
    TITLE "13:cjc034_06932"
    INDEX 01 01:14:57
  TRACK 53 AUDIO
    TITLE "0:"
    INDEX 01 01:16:09
  TRACK 54 AUDIO
    TITLE "14:cjc034_06933"
    INDEX 01 01:16:40
  TRACK 55 AUDIO
    TITLE "0:"
    INDEX 01 01:17:53
  TRACK 56 AUDIO
    TITLE "15:cjc034_06934"
    INDEX 01 01:18:13
  TRACK 57 AUDIO
    TITLE "0:"
    INDEX 01 01:22:09
  TRACK 58 AUDIO
    TITLE "12:cjc034_06935"
    INDEX 01 01:23:42
  TRACK 59 AUDIO
    TITLE "0:"
    INDEX 01 01:25:08
  TRACK 60 AUDIO
    TITLE "13:cjc034_06936"
    INDEX 01 01:25:41
  TRACK 61 AUDIO
    TITLE "0:"
    INDEX 01 01:28:06
  TRACK 62 AUDIO
    TITLE "14:cjc034_06937"
    INDEX 01 01:28:39
  TRACK 63 AUDIO
    TITLE "0:"
    INDEX 01 01:30:03
  TRACK 64 AUDIO
    TITLE "15:cjc034_06938"
    INDEX 01 01:30:36
  TRACK 65 AUDIO
    TITLE "0:"
    INDEX 01 01:35:24
  TRACK 66 AUDIO
    TITLE "12:cjc034_06939"
    INDEX 01 01:36:56
  TRACK 67 AUDIO
    TITLE "0:"
    INDEX 01 01:38:06
  TRACK 68 AUDIO
    TITLE "13:cjc034_06940"
    INDEX 01 01:38:42
  TRACK 69 AUDIO
    TITLE "0:"
    INDEX 01 01:39:72
  TRACK 70 AUDIO
    TITLE "14:cjc034_06941"
    INDEX 01 01:40:31
  TRACK 71 AUDIO
    TITLE "0:"
    INDEX 01 01:41:56
  TRACK 72 AUDIO
    TITLE "15:cjc034_06942"
    INDEX 01 01:42:14
  TRACK 73 AUDIO
    TITLE "0:"
    INDEX 01 01:46:25
